<svg width="160" height="40" viewBox="0 0 160 40" fill="none" xmlns="http://www.w3.org/2000/svg">
<g id="Company Logo">
<g id="Lookscout">
<path d="M41.321 11.5664H44.8702V25.0891H51.4481V28.1412H41.321V11.5664Z" fill="#2E343F"/>
<path d="M53.0459 25.3259C52.5025 24.3247 52.2289 23.1993 52.252 22.0603C52.2289 20.9214 52.5025 19.796 53.0459 18.7947C53.5625 17.8592 54.3449 17.0977 55.2941 16.6065C56.346 16.0994 57.4987 15.836 58.6664 15.836C59.8342 15.836 60.9869 16.0994 62.0388 16.6065C62.9866 17.0997 63.7684 17.8606 64.287 18.7947C64.8278 19.7969 65.1001 20.9218 65.0775 22.0603C65.1029 23.2034 64.8304 24.3334 64.287 25.3393C63.7649 26.2673 62.9837 27.0231 62.0388 27.5141C60.9869 28.0212 59.8342 28.2846 58.6664 28.2846C57.4987 28.2846 56.346 28.0212 55.2941 27.5141C54.3449 27.0229 53.5625 26.2615 53.0459 25.3259ZM61.6952 22.0603C61.7327 21.1439 61.4378 20.2447 60.8646 19.5286C60.5948 19.2127 60.2567 18.9624 59.8759 18.7966C59.495 18.6307 59.0814 18.5536 58.6664 18.5712C58.2517 18.5546 57.8387 18.6334 57.4593 18.8017C57.0799 18.97 56.7442 19.2233 56.4782 19.5419C55.9085 20.2592 55.6182 21.1587 55.661 22.0737C55.6182 22.9887 55.9085 23.8882 56.4782 24.6054C56.7442 24.9241 57.0799 25.1773 57.4593 25.3456C57.8387 25.5139 58.2517 25.5928 58.6664 25.5761C59.0836 25.5905 59.4985 25.5093 59.8795 25.3387C60.2605 25.1682 60.5974 24.9128 60.8646 24.5921C61.4378 23.876 61.7327 22.9768 61.6952 22.0603Z" fill="#2E343F"/>
<path d="M67.2424 25.3259C66.699 24.3247 66.4254 23.1993 66.4485 22.0603C66.4254 20.9214 66.699 19.796 67.2424 18.7947C67.759 17.8592 68.5414 17.0977 69.4906 16.6065C70.5419 16.0995 71.6941 15.8361 72.8613 15.8361C74.0285 15.8361 75.1806 16.0995 76.2319 16.6065C77.1811 17.0977 77.9635 17.8592 78.4802 18.7947C79.0235 19.796 79.2971 20.9214 79.2741 22.0603C79.2999 23.2038 79.0262 24.3342 78.4802 25.3393C77.96 26.2688 77.1782 27.0251 76.2319 27.5141C75.1806 28.0212 74.0285 28.2845 72.8613 28.2845C71.6941 28.2845 70.5419 28.0212 69.4906 27.5141C68.5414 27.0229 67.759 26.2615 67.2424 25.3259ZM75.8917 22.0603C75.933 21.1455 75.6428 20.2466 75.0745 19.5286C74.7951 19.2228 74.455 18.9785 74.0759 18.8114C73.6969 18.6443 73.2872 18.558 72.8729 18.558C72.4587 18.558 72.049 18.6443 71.6699 18.8114C71.2909 18.9785 70.9508 19.2228 70.6714 19.5286C70.109 20.2489 69.8248 21.1476 69.8708 22.0603C69.8286 22.9747 70.1176 23.8736 70.6848 24.5921C70.9642 24.8979 71.3042 25.1422 71.6833 25.3093C72.0623 25.4764 72.472 25.5627 72.8863 25.5627C73.3005 25.5627 73.7102 25.4764 74.0893 25.3093C74.4683 25.1422 74.8084 24.8979 75.0878 24.5921C75.6514 23.8722 75.9368 22.9735 75.8917 22.0603Z" fill="#2E343F"/>
<path d="M84.4543 11.5664V21.1597L89.2343 15.9794H92.9736L88.6372 20.7361L93.2204 28.1412H89.3544L86.2789 23.2211L84.4543 25.1825V28.1412H81.1187V11.5664H84.4543Z" fill="#2E343F"/>
<path d="M97.3266 25.396C97.8651 25.7533 98.502 25.933 99.1479 25.9097C99.7229 25.9393 100.296 25.8246 100.816 25.5761C101.007 25.4895 101.169 25.3484 101.28 25.1704C101.392 24.9924 101.448 24.7854 101.443 24.5754C101.453 24.4432 101.433 24.3104 101.384 24.1872C101.334 24.0641 101.258 23.9538 101.159 23.8649C100.922 23.6909 100.646 23.5765 100.355 23.5314C100.022 23.4613 99.4414 23.3779 98.6509 23.2845C97.7481 23.1761 96.8556 22.9942 95.9823 22.7408C95.3309 22.5535 94.7421 22.1939 94.2778 21.7001C93.832 21.1725 93.603 20.4953 93.6374 19.8054C93.6287 19.0536 93.8627 18.319 94.3045 17.7106C94.7701 17.0782 95.4049 16.5903 96.1358 16.303C97.001 15.958 97.9264 15.789 98.8577 15.806C100.514 15.8216 101.849 16.1762 102.86 16.8701C103.346 17.1841 103.75 17.6106 104.036 18.1134C104.322 18.6162 104.483 19.1806 104.505 19.7587H101.336C101.311 19.5286 101.232 19.3073 101.107 19.1124C100.982 18.9174 100.814 18.7539 100.616 18.6346C100.116 18.3249 99.535 18.1727 98.9478 18.1977C98.4168 18.173 97.8893 18.2954 97.4233 18.5512C97.2494 18.6412 97.1034 18.7771 97.0011 18.944C96.8988 19.111 96.8441 19.3027 96.8429 19.4986C96.8353 19.6221 96.8596 19.7456 96.9133 19.8571C96.967 19.9687 97.0485 20.0646 97.1498 20.1357C97.3933 20.2938 97.6671 20.3995 97.9537 20.4459C98.2873 20.5059 98.8377 20.5793 99.6215 20.656C101.263 20.8473 102.521 21.1986 103.398 21.7101C104.271 22.2238 104.708 23.1011 104.708 24.3486C104.72 25.1016 104.474 25.8359 104.011 26.43C103.503 27.0607 102.832 27.5396 102.07 27.8143C101.15 28.1547 100.175 28.3199 99.1946 28.3013C97.5067 28.3013 96.1347 27.9266 95.0784 27.1772C94.5762 26.8361 94.1629 26.3799 93.8728 25.8467C93.5827 25.3135 93.4242 24.7186 93.4106 24.1118H96.5561C96.5787 24.3702 96.6599 24.6202 96.7934 24.8426C96.9269 25.0651 97.1092 25.2544 97.3266 25.396Z" fill="#2E343F"/>
<path d="M112.397 28.2847C111.246 28.3107 110.106 28.0457 109.085 27.5141C108.155 27.0168 107.394 26.2554 106.897 25.3259C106.371 24.3189 106.107 23.196 106.129 22.0603C106.104 20.9212 106.368 19.7942 106.897 18.7847C107.399 17.857 108.165 17.0991 109.098 16.6066C110.128 16.0738 111.275 15.8088 112.434 15.836C114.059 15.836 115.384 16.2507 116.407 17.0802C117.453 17.945 118.13 19.1759 118.301 20.5226H114.835C114.72 19.9637 114.421 19.4598 113.985 19.0916C113.537 18.7279 112.973 18.5383 112.397 18.5579C111.998 18.5444 111.602 18.6253 111.24 18.794C110.878 18.9627 110.562 19.2144 110.316 19.5286C109.769 20.2562 109.493 21.1514 109.535 22.0603C109.493 22.9693 109.769 23.8645 110.316 24.5921C110.56 24.9088 110.876 25.163 111.238 25.334C111.6 25.5051 111.997 25.588 112.397 25.5761C112.985 25.5968 113.561 25.4036 114.018 25.0324C114.464 24.6486 114.761 24.1212 114.859 23.5414H118.291C118.135 24.9028 117.462 26.1521 116.41 27.0305C115.376 27.8666 114.038 28.2847 112.397 28.2847Z" fill="#2E343F"/>
<path d="M120.239 25.3259C119.696 24.3247 119.422 23.1993 119.445 22.0603C119.422 20.9214 119.696 19.796 120.239 18.7947C120.756 17.8592 121.538 17.0977 122.487 16.6065C123.539 16.0995 124.691 15.8361 125.858 15.8361C127.025 15.8361 128.177 16.0995 129.229 16.6065C130.178 17.0977 130.96 17.8592 131.477 18.7947C132.02 19.796 132.294 20.9214 132.271 22.0603C132.297 23.2038 132.023 24.3342 131.477 25.3393C130.961 26.2664 130.186 27.0224 129.245 27.5141C128.194 28.0212 127.042 28.2845 125.875 28.2845C124.708 28.2845 123.555 28.0212 122.504 27.5141C121.549 27.0256 120.76 26.2639 120.239 25.3259ZM128.889 22.0603C128.93 21.1455 128.64 20.2466 128.071 19.5286C127.792 19.2228 127.452 18.9785 127.073 18.8114C126.694 18.6443 126.284 18.558 125.87 18.558C125.456 18.558 125.046 18.6443 124.667 18.8114C124.288 18.9785 123.948 19.2228 123.668 19.5286C123.101 20.247 122.812 21.146 122.854 22.0603C122.812 22.9747 123.101 23.8736 123.668 24.5921C123.948 24.8979 124.288 25.1422 124.667 25.3093C125.046 25.4764 125.456 25.5627 125.87 25.5627C126.284 25.5627 126.694 25.4764 127.073 25.3093C127.452 25.1422 127.792 24.8979 128.071 24.5921C128.641 23.8746 128.932 22.9755 128.892 22.0603H128.889Z" fill="#2E343F"/>
<path d="M145.57 28.1412H142.615L142.305 26.6735C141.877 27.2037 141.331 27.6258 140.711 27.9057C140.09 28.1856 139.412 28.3154 138.732 28.2846C138.093 28.309 137.456 28.2053 136.858 27.9796C136.26 27.7539 135.713 27.4108 135.25 26.9704C134.36 26.0965 133.915 24.6332 133.915 22.5807V15.9794H137.251V22.1771C137.251 23.2845 137.444 24.1151 137.831 24.6755C138.033 24.9569 138.303 25.1819 138.616 25.3291C138.929 25.4762 139.274 25.5406 139.619 25.5161C139.994 25.5329 140.368 25.4565 140.706 25.2934C141.044 25.1304 141.337 24.886 141.557 24.5821C142.018 23.9583 142.244 23.0844 142.244 21.9669V15.9794H145.58L145.57 28.1412Z" fill="#2E343F"/>
<path d="M146.754 18.7947V15.9794H148.756V12.5671H152.091V15.9794H154.86V18.7947H152.091V24.1318C152.061 24.4628 152.158 24.793 152.361 25.0557C152.487 25.1616 152.633 25.2413 152.79 25.29C152.947 25.3387 153.112 25.3554 153.275 25.3393H155V28.1546H152.261C149.94 28.1546 148.78 26.9949 148.782 24.6755V18.7947H146.754Z" fill="#2E343F"/>
<path d="M22.3205 9L5 19V13L17.1282 6L22.3205 9Z" fill="#2E343F"/>
<path d="M29.2564 13V16.4615L8 28.7308L5 27V23.7436L26.4231 11.3718L29.2564 13Z" fill="#2E343F"/>
<path d="M12.1026 31.1026L29.2564 21.2051V27L17.1282 34L12.1026 31.1026Z" fill="#2E343F"/>
</g>
</g>
</svg>
