<svg width="128" height="32" viewBox="0 0 128 32" fill="none" xmlns="http://www.w3.org/2000/svg">
<g id="Company Logo">
<g id="Logo">
<path d="M53.3491 12.5683H56.5207V22.5518H53.3491V12.5683Z" fill="white"/>
<path d="M57.1829 12.5682H60.2376V13.9332H60.2959C61.0353 12.8607 61.9886 12.2758 63.3701 12.2758C65.5492 12.2758 66.8334 13.8357 66.8334 16.0586V22.5518H63.6619V16.7021C63.6619 15.6491 63.1366 14.9276 62.1054 14.9276C61.0548 14.9276 60.3543 15.8051 60.3543 17.0335V22.5518H57.1829V12.5682Z" fill="white"/>
<path d="M56.8372 9.89724C56.8372 8.84422 55.9855 7.99069 54.9348 7.99069C53.8842 7.99069 53.0324 8.84422 53.0324 9.89724C53.0324 10.9502 53.8842 11.8037 54.9348 11.8037C55.9855 11.8037 56.8372 10.9502 56.8372 9.89724Z" fill="white"/>
<path d="M89.1386 12.4241C89.0481 12.4159 88.9444 12.4122 88.823 12.4122C87.6167 12.4122 86.7995 12.9387 86.099 14.1282H86.0407V12.5683H83.0054V22.5517H86.1769V18.067C86.1769 15.989 87.3251 15.0261 89.1386 15.1941V12.4241Z" fill="white"/>
<path d="M104.702 16.2535C103.437 16.0196 102.309 15.9221 102.309 15.2202C102.309 14.5961 102.912 14.3037 103.69 14.3037C104.566 14.3037 105.169 14.5766 105.286 15.4736H108.204C108.049 13.5042 106.531 12.2757 103.71 12.2757C101.356 12.2757 99.4099 13.3677 99.4099 15.4736C99.4099 17.8134 101.258 18.2814 102.99 18.574C104.313 18.808 105.519 18.9055 105.519 19.8024C105.519 20.4459 104.916 20.7969 103.963 20.7969C103.006 20.7969 102.374 20.3913 102.18 19.5685H99.1577C99.3801 21.6208 101.178 22.8638 103.982 22.8638C106.589 22.8638 108.516 21.7328 108.516 19.549C108.516 16.9945 106.453 16.546 104.702 16.2535Z" fill="white"/>
<path d="M94.0583 14.5376C95.0895 14.5376 95.8288 15.2981 95.9456 16.4876H92.0154C92.2294 15.2981 92.852 14.5376 94.0583 14.5376ZM94.2334 20.5628C92.9298 20.5628 92.1905 19.7244 91.9958 18.3789H99.156C99.1754 16.3511 98.5918 14.6156 97.4049 13.5237C96.5488 12.7438 95.4203 12.2758 93.9998 12.2758C90.9647 12.2758 88.8828 14.5571 88.8828 17.5406C88.8828 20.5628 90.9064 22.8443 94.1945 22.8443C95.4591 22.8443 96.4709 22.5128 97.3076 21.9278C98.1831 21.3234 98.7668 20.4654 98.9808 19.5685H95.8872C95.6148 20.1924 95.0701 20.5628 94.2334 20.5628Z" fill="white"/>
<path d="M114.101 20.1976C113.954 20.2034 113.757 20.212 113.576 20.212C112.895 20.212 112.467 20.0169 112.467 19.2369V14.5571H114.101V12.5682H112.467V9.40938H109.373V12.5682H108.4V14.5571H109.373V19.9194C109.373 22.0644 110.696 22.6688 112.544 22.6688C113.25 22.6688 113.783 22.6159 114.101 22.5536V20.1976Z" fill="white"/>
<path d="M72.497 20.2021C72.3705 20.207 72.2244 20.212 72.088 20.212C71.4071 20.212 70.979 20.0169 70.979 19.2369V14.5571H72.497V12.5682H70.979V9.40938H67.8854V12.5682H66.8538V14.5571H67.8854V19.9194C67.8854 22.0644 69.2084 22.6688 71.0568 22.6688C71.6823 22.6688 72.1719 22.6271 72.497 22.5742V20.2021Z" fill="white"/>
<path d="M79.405 16.4876C79.2883 15.2982 78.5488 14.5376 77.5176 14.5376C76.3113 14.5376 75.6887 15.2982 75.4747 16.4876H79.405ZM72.3422 17.5405C72.3422 14.5571 74.424 12.2758 77.4593 12.2758C78.8796 12.2758 80.0082 12.7438 80.8642 13.5237C82.0511 14.6157 82.6347 16.3511 82.6153 18.379H75.4553C75.6498 19.7244 76.3892 20.5629 77.6928 20.5629C78.5294 20.5629 79.0742 20.1924 79.3465 19.5685H82.4402C82.2261 20.4654 81.6425 21.3233 80.7669 21.9279C79.9303 22.5128 78.9186 22.8443 77.6539 22.8443C74.3656 22.8443 72.3422 20.5629 72.3422 17.5405Z" fill="white"/>
<path d="M47.8414 15.1617C49.0867 15.1617 49.7871 14.4207 49.7871 13.3091C49.7871 12.1978 49.0672 11.5153 47.8414 11.5153H45.4092V15.1617H47.8414ZM42.1984 8.60992H47.7058C49.3984 8.60992 50.6437 9.07786 51.4998 9.89686C52.3948 10.7352 52.9007 11.9248 52.9007 13.3287C52.9007 16 51.0523 17.8915 48.1921 17.8915H45.4092V22.5518H42.1984V8.60992Z" fill="white"/>
<path d="M25.8723 4C19.2593 4 13.8984 9.37252 13.8984 16C13.8984 21.0838 17.0531 25.4283 21.5073 27.1767C21.4027 26.2273 21.3081 24.7671 21.5488 23.7306C21.7664 22.7941 22.9529 17.7659 22.9529 17.7659C22.9529 17.7659 22.5947 17.047 22.5947 15.9842C22.5947 14.3156 23.5598 13.0699 24.7614 13.0699C25.7829 13.0699 26.2764 13.8386 26.2764 14.7603C26.2764 15.7899 25.6223 17.3292 25.2847 18.7557C25.0026 19.9501 25.8824 20.9241 27.0579 20.9241C29.186 20.9241 30.8219 18.6753 30.8219 15.4291C30.8219 12.5558 28.7619 10.547 25.8203 10.547C22.4134 10.547 20.4136 13.108 20.4136 15.7546C20.4136 16.786 20.81 17.892 21.3047 18.4932C21.4026 18.612 21.4169 18.7161 21.3878 18.8374C21.2969 19.2164 21.0949 20.0315 21.0552 20.1983C21.003 20.4179 20.8817 20.4646 20.6548 20.3587C19.1593 19.6611 18.2243 17.4699 18.2243 15.7099C18.2243 11.9245 20.9686 8.44813 26.1359 8.44813C30.2896 8.44813 33.5176 11.4145 33.5176 15.3788C33.5176 19.5144 30.9156 22.8428 27.3042 22.8428C26.0909 22.8428 24.9502 22.2111 24.5598 21.4649C24.5598 21.4649 23.9594 23.756 23.8138 24.3175C23.5435 25.3598 22.8137 26.6663 22.3256 27.4634C23.4459 27.811 24.6379 28 25.8723 28C32.4852 28 37.8462 22.6274 37.8462 16C37.8462 9.37252 32.4852 4 25.8723 4Z" fill="white"/>
</g>
</g>
</svg>
