<svg width="128" height="32" viewBox="0 0 128 32" fill="none" xmlns="http://www.w3.org/2000/svg">
<g id="Company Logo">
<g id="Logo">
<path d="M80.3203 8.70399H76.0963C76.0003 8.70399 75.9043 8.80001 75.9043 8.89601V11.344C75.9043 11.44 76.0003 11.536 76.0963 11.536H80.3203C80.4163 11.536 80.5123 11.44 80.5123 11.344V8.89601C80.5603 8.80001 80.4643 8.70399 80.3203 8.70399ZM80.2723 12.352H72.1123C72.0163 12.352 71.8723 12.448 71.8243 12.544L70.7683 16.528L70.7203 16.72L69.4723 12.448C69.4243 12.352 69.3283 12.256 69.1843 12.256H66.0163C65.9203 12.256 65.7763 12.352 65.7283 12.448L64.5283 16.432L64.4803 16.624L64.4323 16.528L63.9523 14.56L63.4243 12.592C63.3763 12.496 63.2803 12.4 63.1363 12.4H56.7523V8.94399C56.7523 8.84799 56.6083 8.704 56.4643 8.752L52.4323 10C52.2883 10.048 52.2403 10.096 52.2403 10.192V12.352H51.1843C51.0883 12.352 50.9923 12.448 50.9923 12.544V15.616C50.9923 15.712 51.0883 15.808 51.1843 15.808H52.2403V19.552C52.2403 22.192 53.6803 23.44 56.3203 23.44C57.4243 23.44 58.4803 23.2 59.2003 22.816V19.648C59.2003 19.504 59.0563 19.456 58.9603 19.456C58.5283 19.648 58.1923 19.696 57.8083 19.696C57.0883 19.696 56.7043 19.408 56.7043 18.592V15.856H59.0083C59.1043 15.856 59.2003 15.76 59.2003 15.664V13.072L62.2243 23.104C62.2723 23.2 62.3683 23.296 62.5123 23.296H65.8723C65.9683 23.296 66.1123 23.2 66.1603 23.104L67.6003 18.64L68.3203 20.944L68.9923 23.056C69.0403 23.152 69.1363 23.248 69.2803 23.248H72.6403C72.7363 23.248 72.8803 23.152 72.9283 23.056L76.0003 12.976V23.056C76.0003 23.152 76.0963 23.248 76.1923 23.248H80.2723C80.3683 23.248 80.4643 23.152 80.4643 23.056V12.592C80.4643 12.448 80.3683 12.352 80.2723 12.352ZM85.6483 8.70399H81.5683C81.4723 8.70399 81.3763 8.80001 81.3763 8.89601V23.056C81.3763 23.152 81.4723 23.248 81.5683 23.248H85.6483C85.7443 23.248 85.8403 23.152 85.8403 23.056V8.89601C85.8403 8.80001 85.7443 8.70399 85.6483 8.70399ZM91.0723 8.70399H86.8483C86.7523 8.70399 86.6563 8.80001 86.6563 8.89601V11.344C86.6563 11.44 86.7523 11.536 86.8483 11.536H91.0723C91.1683 11.536 91.2643 11.44 91.2643 11.344V8.89601C91.3123 8.80001 91.2163 8.70399 91.0723 8.70399ZM91.0243 12.352H86.9443C86.8483 12.352 86.7523 12.448 86.7523 12.544V23.056C86.7523 23.152 86.8483 23.248 86.9443 23.248H91.0243C91.1203 23.248 91.2163 23.152 91.2163 23.056V12.592C91.2163 12.448 91.1203 12.352 91.0243 12.352ZM97.7923 12.112C94.1923 12.112 91.6483 14.752 91.6483 17.824V17.872C91.6483 20.944 94.1923 23.536 97.7443 23.536C101.344 23.536 103.888 20.896 103.888 17.824V17.776C103.888 14.704 101.344 12.112 97.7923 12.112ZM99.5203 17.824C99.5203 18.88 98.8003 19.696 97.7923 19.696C96.7843 19.696 96.0163 18.832 96.0163 17.776V17.728C96.0163 16.672 96.7363 15.856 97.7443 15.856C98.7523 15.856 99.5203 16.72 99.5203 17.824ZM36.1123 4C29.4883 4 24.1123 9.376 24.1123 16C24.1123 22.624 29.4883 28 36.1123 28C42.7363 28 48.1123 22.624 48.1123 16C48.1123 9.376 42.7363 4 36.1123 4ZM36.1123 24.832C31.2163 24.832 27.2803 20.896 27.2803 16C27.2803 11.104 31.2163 7.168 36.1123 7.168C41.0083 7.168 44.9443 11.104 44.9443 16C44.9443 20.896 41.0083 24.832 36.1123 24.832Z" fill="white"/>
<path d="M39.0883 15.52C40.4668 15.52 41.5843 14.4025 41.5843 13.024C41.5843 11.6455 40.4668 10.528 39.0883 10.528C37.7098 10.528 36.5923 11.6455 36.5923 13.024C36.5923 14.4025 37.7098 15.52 39.0883 15.52Z" fill="white"/>
<path d="M39.0883 21.472C40.4668 21.472 41.5843 20.3545 41.5843 18.976C41.5843 17.5975 40.4668 16.48 39.0883 16.48C37.7098 16.48 36.5923 17.5975 36.5923 18.976C36.5923 20.3545 37.7098 21.472 39.0883 21.472Z" fill="white"/>
<path d="M33.1363 21.472C34.5148 21.472 35.6323 20.3545 35.6323 18.976C35.6323 17.5975 34.5148 16.48 33.1363 16.48C31.7578 16.48 30.6403 17.5975 30.6403 18.976C30.6403 20.3545 31.7578 21.472 33.1363 21.472Z" fill="white"/>
<path d="M33.1363 15.52C34.5148 15.52 35.6323 14.4025 35.6323 13.024C35.6323 11.6455 34.5148 10.528 33.1363 10.528C31.7578 10.528 30.6403 11.6455 30.6403 13.024C30.6403 14.4025 31.7578 15.52 33.1363 15.52Z" fill="white"/>
</g>
</g>
</svg>
