<svg width="32" height="32" viewBox="0 0 32 32" fill="none" xmlns="http://www.w3.org/2000/svg">
<g id="Icon">
<path id="Icon_2" fill-rule="evenodd" clip-rule="evenodd" d="M1.33301 15.9999C1.33301 7.89974 7.8995 1.33325 15.9997 1.33325C24.0998 1.33325 30.6663 7.89974 30.6663 15.9999C30.6663 24.1001 24.0998 30.6666 15.9997 30.6666C7.8995 30.6666 1.33301 24.1001 1.33301 15.9999ZM15.9997 5.33325C16.7361 5.33325 17.333 5.93021 17.333 6.66658V11.8518C17.333 12.5881 16.7361 13.1851 15.9997 13.1851C15.2633 13.1851 14.6663 12.5881 14.6663 11.8518V6.66658C14.6663 5.93021 15.2633 5.33325 15.9997 5.33325ZM25.333 17.3333C26.0694 17.3333 26.6663 16.7363 26.6663 15.9999C26.6663 15.2635 26.0694 14.6666 25.333 14.6666H20.1478C19.4114 14.6666 18.8145 15.2635 18.8145 15.9999C18.8145 16.7363 19.4114 17.3333 20.1478 17.3333H25.333ZM15.9997 18.8147C16.7361 18.8147 17.333 19.4117 17.333 20.1481V25.3333C17.333 26.0696 16.7361 26.6666 15.9997 26.6666C15.2633 26.6666 14.6663 26.0696 14.6663 25.3333V20.1481C14.6663 19.4117 15.2633 18.8147 15.9997 18.8147ZM11.8515 17.3333C12.5879 17.3333 13.1849 16.7363 13.1849 15.9999C13.1849 15.2635 12.5879 14.6666 11.8515 14.6666H6.66634C5.92996 14.6666 5.33301 15.2635 5.33301 15.9999C5.33301 16.7363 5.92996 17.3333 6.66634 17.3333H11.8515Z" fill="white"/>
</g>
</svg>
