<svg width="32" height="32" viewBox="0 0 32 32" fill="none" xmlns="http://www.w3.org/2000/svg">
<g id="Icon">
<path id="Icon_2" d="M24.0003 11.9999C26.9458 11.9999 29.3337 9.6121 29.3337 6.66658C29.3337 3.72107 26.9458 1.33325 24.0003 1.33325C21.0548 1.33325 18.667 3.72107 18.667 6.66658C18.667 7.16954 18.7366 7.65624 18.8667 8.11757L11.789 12.2462C10.8225 11.2708 9.48199 10.6666 8.00033 10.6666C5.05481 10.6666 2.66699 13.0544 2.66699 15.9999C2.66699 18.9454 5.05481 21.3333 8.00033 21.3333C9.48199 21.3333 10.8225 20.7291 11.789 19.7536L18.8667 23.8823C18.7366 24.3436 18.667 24.8303 18.667 25.3333C18.667 28.2788 21.0548 30.6666 24.0003 30.6666C26.9458 30.6666 29.3337 28.2788 29.3337 25.3333C29.3337 22.3877 26.9458 19.9999 24.0003 19.9999C22.5187 19.9999 21.1781 20.6041 20.2116 21.5796L13.1339 17.4509C13.264 16.9896 13.3337 16.5029 13.3337 15.9999C13.3337 15.497 13.264 15.0103 13.1339 14.5489L20.2116 10.4203C21.1781 11.3957 22.5187 11.9999 24.0003 11.9999Z" fill="white"/>
</g>
</svg>
