<svg width="32" height="32" viewBox="0 0 32 32" fill="none" xmlns="http://www.w3.org/2000/svg">
<g id="Icon">
<path id="Icon_2" d="M10.2772 8.3913C10.5271 7.86912 10.667 7.28428 10.667 6.66675C10.667 4.45761 8.87613 2.66675 6.66699 2.66675C4.45785 2.66675 2.66699 4.45761 2.66699 6.66675C2.66699 8.87589 4.45785 10.6667 6.66699 10.6667C7.28452 10.6667 7.86937 10.5268 8.39155 10.2769L10.4382 12.3236C9.74016 13.3775 9.33366 14.6413 9.33366 16.0001C9.33366 17.3589 9.74016 18.6227 10.4382 19.6766L8.69105 21.4237C8.47075 21.3648 8.23921 21.3334 8.00033 21.3334C6.52757 21.3334 5.33366 22.5273 5.33366 24.0001C5.33366 25.4728 6.52757 26.6667 8.00033 26.6667C9.47308 26.6667 10.667 25.4728 10.667 24.0001C10.667 23.7612 10.6356 23.5297 10.5767 23.3094L12.3238 21.5622C13.3777 22.2602 14.6416 22.6667 16.0003 22.6667C17.3591 22.6667 18.6229 22.2602 19.6768 21.5622L21.7235 23.6089C21.4736 24.131 21.3337 24.7159 21.3337 25.3334C21.3337 27.5426 23.1245 29.3334 25.3337 29.3334C27.5428 29.3334 29.3337 27.5426 29.3337 25.3334C29.3337 23.1243 27.5428 21.3334 25.3337 21.3334C24.7161 21.3334 24.1313 21.4734 23.6091 21.7232L21.5625 19.6766C22.2605 18.6227 22.667 17.3589 22.667 16.0001C22.667 14.6413 22.2605 13.3775 21.5625 12.3236L23.3096 10.5764C23.5299 10.6353 23.7614 10.6667 24.0003 10.6667C25.4731 10.6667 26.667 9.47284 26.667 8.00008C26.667 6.52732 25.4731 5.33341 24.0003 5.33341C22.5276 5.33341 21.3337 6.52732 21.3337 8.00008C21.3337 8.23896 21.3651 8.4705 21.424 8.69081L19.6768 10.4379C18.6229 9.73992 17.3591 9.33342 16.0003 9.33342C14.6416 9.33342 13.3777 9.73992 12.3238 10.4379L10.2772 8.3913Z" fill="white"/>
</g>
</svg>
