<svg width="33" height="32" viewBox="0 0 33 32" fill="none" xmlns="http://www.w3.org/2000/svg">
<g id="Icon">
<g id="Icon_2">
<path d="M2.8335 12.2667C2.8335 10.7732 2.8335 10.0265 3.12415 9.45603C3.37981 8.95426 3.78776 8.54631 4.28952 8.29065C4.85995 8 5.60669 8 7.10016 8H17.2335C18.727 8 19.4737 8 20.0441 8.29065C20.5459 8.54631 20.9539 8.95426 21.2095 9.45603C21.5002 10.0265 21.5002 10.7732 21.5002 12.2667V19.7333C21.5002 21.2268 21.5002 21.9735 21.2095 22.544C20.9539 23.0457 20.5459 23.4537 20.0441 23.7094C19.4737 24 18.727 24 17.2335 24H7.10016C5.60669 24 4.85995 24 4.28952 23.7094C3.78776 23.4537 3.37981 23.0457 3.12415 22.544C2.8335 21.9735 2.8335 21.2268 2.8335 19.7333V12.2667Z" fill="#437EF7"/>
<path d="M28.1668 15.253V16.747C28.1668 18.7456 28.1668 19.7449 27.7484 20.4009C27.3822 20.9751 26.8102 21.3874 26.1496 21.5532C25.4335 21.7331 24.5431 21.4576 22.8335 20.8888V11.1112C24.5431 10.5424 25.4334 10.2669 26.1496 10.4468C26.8102 10.6126 27.3822 11.0249 27.7484 11.5991C28.1668 12.2551 28.1668 13.2544 28.1668 15.253Z" fill="#437EF7"/>
</g>
</g>
</svg>
