<svg width="33" height="32" viewBox="0 0 33 32" fill="none" xmlns="http://www.w3.org/2000/svg">
<g id="Icon">
<g id="Icon_2">
<path d="M4.50008 4C3.7637 4 3.16675 4.59695 3.16675 5.33333C3.16675 6.06971 3.7637 6.66667 4.50008 6.66667H5.99939L7.66988 19.1953C7.93485 21.1825 9.62998 22.6667 11.6348 22.6667H23.2281C25.0566 22.6667 26.6522 21.4268 27.1041 19.6551L28.944 12.4403C29.5889 9.91116 27.6781 7.45185 25.068 7.45185H8.79435L8.64267 6.31423C8.46602 4.98941 7.33593 4 5.99939 4H4.50008Z" fill="#437EF7"/>
<path d="M7.16675 26.6667C7.16675 25.1939 8.36066 24 9.83342 24C11.3062 24 12.5001 25.1939 12.5001 26.6667C12.5001 28.1394 11.3062 29.3333 9.83342 29.3333C8.36066 29.3333 7.16675 28.1394 7.16675 26.6667Z" fill="#437EF7"/>
<path d="M24.5001 24C23.0273 24 21.8334 25.1939 21.8334 26.6667C21.8334 28.1394 23.0273 29.3333 24.5001 29.3333C25.9728 29.3333 27.1667 28.1394 27.1667 26.6667C27.1667 25.1939 25.9728 24 24.5001 24Z" fill="#437EF7"/>
</g>
</g>
</svg>
