<svg width="20" height="20" viewBox="0 0 20 20" fill="none" xmlns="http://www.w3.org/2000/svg">
<g id="Icon">
<g id="Icon_2">
<path d="M1.66679 5.8335H18.3334C18.3327 5.00987 18.3223 4.57815 18.1518 4.24351C17.992 3.92991 17.737 3.67494 17.4234 3.51515C17.0669 3.3335 16.6002 3.3335 15.6667 3.3335H4.33341C3.39999 3.3335 2.93328 3.3335 2.57676 3.51515C2.26316 3.67494 2.00819 3.92991 1.8484 4.24351C1.6779 4.57815 1.66743 5.00987 1.66679 5.8335Z" fill="white"/>
<path fill-rule="evenodd" clip-rule="evenodd" d="M18.3334 7.50016H1.66675V14.0002C1.66675 14.9336 1.66675 15.4003 1.8484 15.7568C2.00819 16.0704 2.26316 16.3254 2.57676 16.4852C2.93328 16.6668 3.39999 16.6668 4.33342 16.6668H15.6667C16.6002 16.6668 17.0669 16.6668 17.4234 16.4852C17.737 16.3254 17.992 16.0704 18.1518 15.7568C18.3334 15.4003 18.3334 14.9336 18.3334 14.0002V7.50016ZM4.16675 13.3335C4.16675 12.8733 4.53984 12.5002 5.00008 12.5002H8.33341C8.79365 12.5002 9.16675 12.8733 9.16675 13.3335C9.16675 13.7937 8.79365 14.1668 8.33341 14.1668H5.00008C4.53984 14.1668 4.16675 13.7937 4.16675 13.3335ZM11.6667 12.5002C11.2065 12.5002 10.8334 12.8733 10.8334 13.3335C10.8334 13.7937 11.2065 14.1668 11.6667 14.1668H15.0001C15.4603 14.1668 15.8334 13.7937 15.8334 13.3335C15.8334 12.8733 15.4603 12.5002 15.0001 12.5002H11.6667Z" fill="white"/>
</g>
</g>
</svg>
