<svg width="20" height="20" viewBox="0 0 20 20" fill="none" xmlns="http://www.w3.org/2000/svg">
<g id="Icon">
<g id="Icon_2">
<path d="M11.6665 9.66683C11.6665 9.20012 11.6665 8.96676 11.7573 8.7885C11.8372 8.6317 11.9647 8.50422 12.1215 8.42432C12.2998 8.3335 12.5331 8.3335 12.9998 8.3335H16.9998C17.4665 8.3335 17.6999 8.3335 17.8782 8.42432C18.035 8.50422 18.1624 8.6317 18.2423 8.7885C18.3332 8.96676 18.3332 9.20012 18.3332 9.66683V10.3335C18.3332 10.8002 18.3332 11.0336 18.2423 11.2118C18.1624 11.3686 18.035 11.4961 17.8782 11.576C17.6999 11.6668 17.4665 11.6668 16.9998 11.6668H12.9998C12.5331 11.6668 12.2998 11.6668 12.1215 11.576C11.9647 11.4961 11.8372 11.3686 11.7573 11.2118C11.6665 11.0336 11.6665 10.8002 11.6665 10.3335V9.66683Z" fill="white"/>
<path d="M13.9998 3.3335H4.33317C3.39975 3.3335 2.93304 3.3335 2.57652 3.51515C2.26292 3.67494 2.00795 3.92991 1.84816 4.24351C1.6665 4.60003 1.6665 5.06674 1.6665 6.00016V14.0002C1.6665 14.9336 1.6665 15.4003 1.84816 15.7568C2.00795 16.0704 2.26292 16.3254 2.57652 16.4852C2.93304 16.6668 3.39975 16.6668 4.33317 16.6668H13.9998C14.9333 16.6668 15.4 16.6668 15.7565 16.4852C16.0701 16.3254 16.3251 16.0704 16.4848 15.7568C16.6665 15.4003 16.6665 14.9336 16.6665 14.0002V13.3335L12.9613 13.3335C12.7628 13.3336 12.5257 13.3337 12.3168 13.3166C12.0748 13.2968 11.7281 13.2461 11.3649 13.061C10.8945 12.8213 10.512 12.4389 10.2723 11.9685C10.0873 11.6052 10.0365 11.2586 10.0167 11.0165C9.99968 10.8077 9.99977 10.5706 9.99985 10.3721V9.62826C9.99977 9.42973 9.99968 9.19264 10.0167 8.98377C10.0365 8.74174 10.0873 8.39509 10.2723 8.03185C10.512 7.56144 10.8945 7.17899 11.3649 6.93931C11.7281 6.75423 12.0748 6.70349 12.3168 6.68371C12.5257 6.66665 12.7628 6.66674 12.9613 6.66681L16.6665 6.66682V6.00016C16.6665 5.06674 16.6665 4.60003 16.4848 4.24351C16.3251 3.92991 16.0701 3.67494 15.7565 3.51515C15.4 3.3335 14.9333 3.3335 13.9998 3.3335Z" fill="white"/>
</g>
</g>
</svg>
