<svg width="20" height="20" viewBox="0 0 20 20" fill="none" xmlns="http://www.w3.org/2000/svg">
<g id="Icon">
<g id="Icon_2">
<path d="M9.16683 0.870605C7.2612 1.04233 5.52374 1.79725 4.13428 2.95551L9.16683 7.98806V0.870605Z" fill="white"/>
<path d="M2.95577 4.13402C1.63068 5.7236 0.833496 7.76866 0.833496 9.9999C0.833496 12.2311 1.63068 14.2762 2.95577 15.8658L8.82165 9.9999L2.95577 4.13402Z" fill="white"/>
<path d="M4.13428 17.0443L10.3453 10.8332C10.6579 10.5207 10.8335 10.0968 10.8335 9.65473V0.870605C15.5056 1.29163 19.1668 5.2182 19.1668 9.9999C19.1668 15.0625 15.0628 19.1666 10.0002 19.1666C7.76892 19.1666 5.72386 18.3694 4.13428 17.0443Z" fill="white"/>
</g>
</g>
</svg>
