<svg width="33" height="32" viewBox="0 0 33 32" fill="none" xmlns="http://www.w3.org/2000/svg">
<g id="Icon">
<g id="Icon_2">
<path d="M23.8904 14.2763L15.6874 22.4793C14.4321 20.2473 12.586 18.4013 10.354 17.146L20.6581 6.84194C21.1861 6.31393 21.4501 6.04992 21.7545 5.951C22.0223 5.86399 22.3108 5.86399 22.5786 5.951C22.883 6.04992 23.147 6.31393 23.6751 6.84195L25.9914 9.1583C26.5194 9.68632 26.7834 9.95033 26.8824 10.2548C26.9694 10.5226 26.9694 10.811 26.8824 11.0788C26.7834 11.3833 26.5194 11.6473 25.9914 12.1753L25.7761 12.3906L27.9713 14.5859C28.7524 15.367 28.7524 16.6333 27.9713 17.4143L24.4427 20.9429C23.922 21.4636 23.0778 21.4636 22.5571 20.9429C22.0364 20.4222 22.0364 19.578 22.5571 19.0573L25.6143 16.0001L23.8904 14.2763Z" fill="#437EF7"/>
<path d="M8.51472 19.6223L7.51581 22.6191C7.08154 23.9219 6.86441 24.5733 7.01888 25.0064C7.15331 25.3834 7.44995 25.6801 7.82692 25.8145C8.26009 25.9689 8.9115 25.7518 10.2143 25.3176L13.211 24.3186C13.362 24.2683 13.4813 24.2285 13.581 24.1933C12.497 22.067 10.7663 20.3364 8.6401 19.2524C8.60481 19.3521 8.56505 19.4714 8.51472 19.6223Z" fill="#437EF7"/>
</g>
</g>
</svg>
