<svg width="20" height="20" viewBox="0 0 20 20" fill="none" xmlns="http://www.w3.org/2000/svg">
<g id="Icon">
<path id="Icon_2" fill-rule="evenodd" clip-rule="evenodd" d="M15.8334 8.30712H17.1934C17.3045 8.30712 17.3601 8.30712 17.4073 8.28828C17.4491 8.27164 17.486 8.24465 17.5148 8.20979C17.5474 8.17031 17.565 8.1169 17.6001 8.01009L18.1038 6.47884C18.2706 5.97192 18.354 5.71846 18.3291 5.48342C18.3071 5.27629 18.2269 5.07993 18.0978 4.91775C17.9514 4.73371 17.7156 4.61423 17.2439 4.37526L10.767 1.09384C10.4858 0.951383 10.3452 0.880153 10.1977 0.852119C10.0671 0.827289 9.93307 0.827289 9.80245 0.852119C9.65498 0.880153 9.51438 0.951383 9.23319 1.09384L2.75625 4.37526C2.28458 4.61423 2.04874 4.73371 1.90232 4.91775C1.77329 5.07993 1.69302 5.27629 1.67108 5.48342C1.64618 5.71846 1.72956 5.97192 1.89633 6.47884L2.40006 8.01009C2.4352 8.1169 2.45277 8.17031 2.48535 8.20979C2.51413 8.24465 2.55108 8.27164 2.59283 8.28828C2.6401 8.30712 2.69565 8.30712 2.80677 8.30712H4.16675V14.8229H3.83666C3.35794 14.8229 3.11858 14.8229 2.91944 14.9077C2.74374 14.9825 2.5909 15.1034 2.47667 15.258C2.34721 15.4332 2.28915 15.6685 2.17305 16.1391L1.95869 17.0079C1.77712 17.7438 1.68634 18.1117 1.77473 18.4015C1.8522 18.6555 2.01893 18.8719 2.24332 19.0097C2.49935 19.1668 2.87367 19.1668 3.62231 19.1668H16.3779C17.1265 19.1668 17.5008 19.1668 17.7568 19.0097C17.9812 18.8719 18.148 18.6555 18.2254 18.4015C18.3138 18.1117 18.223 17.7438 18.0415 17.0079L17.8271 16.1391C17.711 15.6685 17.653 15.4332 17.5235 15.258C17.4093 15.1034 17.2564 14.9825 17.0807 14.9077C16.8816 14.8229 16.6422 14.8229 16.1635 14.8229H15.8334V8.30712ZM14.1668 8.30712H10.8334V14.8229H14.1668V8.30712ZM9.16675 14.8229V8.30712H5.83342V14.8229H9.16675Z" fill="white"/>
</g>
</svg>
