<svg width="20" height="20" viewBox="0 0 20 20" fill="none" xmlns="http://www.w3.org/2000/svg">
<g id="Social platforms logo">
<g id="Button container">
<g id="Button">
<path id="Vector" d="M0 1.43266C0 0.641875 0.662031 0 1.47812 0H18.5219C19.3383 0 20 0.641875 20 1.43266V18.5676C20 19.3586 19.3383 20 18.5219 20H1.47812C0.662109 20 0 19.3587 0 18.5678V1.43242V1.43266Z" fill="#272D37"/>
<path id="Vector_2" d="M6.07742 16.7374V7.73329H3.08461V16.7374H6.07773H6.07742ZM4.58164 6.50415C5.62508 6.50415 6.27469 5.81274 6.27469 4.94868C6.25516 4.06493 5.62508 3.39282 4.60148 3.39282C3.57719 3.39282 2.9082 4.06493 2.9082 4.9486C2.9082 5.81267 3.55758 6.50407 4.56203 6.50407H4.58141L4.58164 6.50415ZM7.73398 16.7374H10.7266V11.7096C10.7266 11.4409 10.7461 11.1714 10.8252 10.9795C11.0414 10.4416 11.5338 9.88478 12.3608 9.88478C13.4434 9.88478 13.8768 10.7104 13.8768 11.9209V16.7374H16.8693V11.5747C16.8693 8.80915 15.393 7.5222 13.4241 7.5222C11.8098 7.5222 11.1008 8.42446 10.7069 9.03899H10.7268V7.7336H7.73414C7.7732 8.57829 7.73391 16.7377 7.73391 16.7377L7.73398 16.7374Z" fill="white"/>
</g>
</g>
</g>
</svg>
